<svg width="48" height="48" viewBox="0 0 48 48" fill="none" xmlns="http://www.w3.org/2000/svg">
<path d="M40.6055 5.96873C40.0275 5.99387 39.4972 6.16009 39.0312 6.34373C38.6008 6.51325 37.0551 7.16293 34.5938 8.19529C32.1324 9.22766 28.871 10.5965 25.3945 12.0586C18.4417 14.9828 10.6285 18.2722 6.625 19.957C6.48752 20.0143 5.92917 20.1852 5.3125 20.6562C4.6944 21.1283 4.00781 22.1529 4.00781 23.2734C4.00781 24.1773 4.45904 25.0979 5.00391 25.625C5.54877 26.152 6.10098 26.3985 6.5625 26.582V26.5781C8.12256 27.1996 12.7814 29.0639 13.8906 29.5078C14.2841 30.6868 15.9732 35.7345 16.375 37.0039H16.3711C16.6551 37.9023 16.932 38.4878 17.3164 38.9765C17.5086 39.2209 17.7381 39.4423 18.0195 39.6172C18.1275 39.6842 18.2471 39.7363 18.3672 39.7851C18.3839 39.7922 18.4012 39.794 18.418 39.8008L18.3711 39.789C18.4059 39.803 18.4372 39.8237 18.4727 39.8359C18.5305 39.8558 18.5706 39.8552 18.6484 39.8711C18.9224 39.9554 19.196 40.0117 19.4492 40.0117C20.5364 40.0117 21.2031 39.4219 21.2031 39.4219L21.2461 39.3906L25.9414 35.4179L31.6914 40.7383C31.7964 40.8866 32.6192 42 34.5234 42C35.6597 42 36.5581 41.4376 37.1328 40.8476C37.7076 40.2577 38.0656 39.6541 38.2266 38.8359L38.2305 38.832C38.3588 38.1716 43.8633 10.5312 43.8633 10.5312L43.8516 10.5781C44.0229 9.81342 44.0735 9.07391 43.8711 8.32029C43.6687 7.56668 43.1225 6.83123 42.4648 6.44529C41.8071 6.05936 41.1834 5.94359 40.6055 5.96873ZM39.8164 10.3476C39.5989 11.4397 34.668 36.2117 34.3633 37.7656L26.0586 30.082L20.4453 34.8281L22 28.75C22 28.75 32.7251 17.8937 33.3711 17.2617C33.8911 16.7557 34 16.5783 34 16.4023C34 16.1683 33.8796 16 33.6016 16C33.3516 16 33.012 16.2395 32.832 16.3515C30.5447 17.7776 20.8026 23.3293 16.0117 26.0547C15.7234 25.9391 11.3948 24.2009 9.0625 23.2695C13.211 21.5235 20.3223 18.5316 26.9453 15.7461C30.4211 14.2842 33.6816 12.9142 36.1406 11.8828C38.2163 11.0122 39.2991 10.5614 39.8164 10.3476ZM34.3047 38.0508H34.3086L34.3047 38.0625C34.3072 38.0496 34.3028 38.0609 34.3047 38.0508Z" fill="black"/>
</svg>
