<svg width="24" height="24" viewBox="0 0 24 24" fill="none" xmlns="http://www.w3.org/2000/svg">
<g id="&#240;&#159;&#166;&#134; icon &#34;shopping cart&#34;">
<g id="Vector">
<path d="M6.99999 18C5.89999 18 5.00999 18.9 5.00999 20C5.00999 21.1 5.89999 22 6.99999 22C8.09999 22 8.99999 21.1 8.99999 20C8.99999 18.9 8.09999 18 6.99999 18ZM0.999992 1.99997V3.99997H2.99999L6.59999 11.59L5.24999 14.04C5.08999 14.32 4.99999 14.65 4.99999 15C4.99999 16.1 5.89999 17 6.99999 17H19V15H7.41999C7.27999 15 7.16999 14.89 7.16999 14.75L7.19999 14.63L8.09999 13H15.55C16.3 13 16.96 12.59 17.3 11.97L20.88 5.47997C20.96 5.33997 21 5.16997 21 4.99997C21 4.44997 20.55 3.99997 20 3.99997H5.20999L4.26999 1.99997H0.999992ZM17 18C15.9 18 15.01 18.9 15.01 20C15.01 21.1 15.9 22 17 22C18.1 22 19 21.1 19 20C19 18.9 18.1 18 17 18Z" fill="#08313A"/>
<path d="M6.99999 18C5.89999 18 5.00999 18.9 5.00999 20C5.00999 21.1 5.89999 22 6.99999 22C8.09999 22 8.99999 21.1 8.99999 20C8.99999 18.9 8.09999 18 6.99999 18ZM0.999992 1.99997V3.99997H2.99999L6.59999 11.59L5.24999 14.04C5.08999 14.32 4.99999 14.65 4.99999 15C4.99999 16.1 5.89999 17 6.99999 17H19V15H7.41999C7.27999 15 7.16999 14.89 7.16999 14.75L7.19999 14.63L8.09999 13H15.55C16.3 13 16.96 12.59 17.3 11.97L20.88 5.47997C20.96 5.33997 21 5.16997 21 4.99997C21 4.44997 20.55 3.99997 20 3.99997H5.20999L4.26999 1.99997H0.999992ZM17 18C15.9 18 15.01 18.9 15.01 20C15.01 21.1 15.9 22 17 22C18.1 22 19 21.1 19 20C19 18.9 18.1 18 17 18Z" fill="#27023B"/>
</g>
</g>
</svg>
