<svg width="19" height="18" viewBox="0 0 19 18" fill="none" xmlns="http://www.w3.org/2000/svg">
<path d="M0.333344 14V16H6.33334V14H0.333344ZM0.333344 2V4H10.3333V2H0.333344ZM10.3333 18V16H18.3333V14H10.3333V12H8.33334V18H10.3333ZM4.33334 6V8H0.333344V10H4.33334V12H6.33334V6H4.33334ZM18.3333 10V8H8.33334V10H18.3333ZM12.3333 6H14.3333V4H18.3333V2H14.3333V0H12.3333V6Z" fill="#0C4957"/>
<path d="M0.333344 14V16H6.33334V14H0.333344ZM0.333344 2V4H10.3333V2H0.333344ZM10.3333 18V16H18.3333V14H10.3333V12H8.33334V18H10.3333ZM4.33334 6V8H0.333344V10H4.33334V12H6.33334V6H4.33334ZM18.3333 10V8H8.33334V10H18.3333ZM12.3333 6H14.3333V4H18.3333V2H14.3333V0H12.3333V6Z" fill="#3B0359"/>
</svg>
