<svg width="36" height="36" viewBox="0 0 36 36" fill="none" xmlns="http://www.w3.org/2000/svg">
<g id="&#240;&#159;&#166;&#134; icon &#34;search&#34;">
<g id="Vector">
<path d="M23.25 21H22.065L21.645 20.595C23.445 18.495 24.375 15.63 23.865 12.585C23.16 8.41504 19.68 5.08504 15.48 4.57504C9.13502 3.79504 3.79502 9.13504 4.57502 15.48C5.08502 19.68 8.41502 23.16 12.585 23.865C15.63 24.375 18.495 23.445 20.595 21.645L21 22.065V23.25L27.375 29.625C27.99 30.24 28.995 30.24 29.61 29.625C30.225 29.01 30.225 28.005 29.61 27.39L23.25 21ZM14.25 21C10.515 21 7.50002 17.985 7.50002 14.25C7.50002 10.515 10.515 7.50004 14.25 7.50004C17.985 7.50004 21 10.515 21 14.25C21 17.985 17.985 21 14.25 21Z" fill="#DCF5FA"/>
<path d="M23.25 21H22.065L21.645 20.595C23.445 18.495 24.375 15.63 23.865 12.585C23.16 8.41504 19.68 5.08504 15.48 4.57504C9.13502 3.79504 3.79502 9.13504 4.57502 15.48C5.08502 19.68 8.41502 23.16 12.585 23.865C15.63 24.375 18.495 23.445 20.595 21.645L21 22.065V23.25L27.375 29.625C27.99 30.24 28.995 30.24 29.61 29.625C30.225 29.01 30.225 28.005 29.61 27.39L23.25 21ZM14.25 21C10.515 21 7.50002 17.985 7.50002 14.25C7.50002 10.515 10.515 7.50004 14.25 7.50004C17.985 7.50004 21 10.515 21 14.25C21 17.985 17.985 21 14.25 21Z" fill="#F0D6FE"/>
</g>
</g>
</svg>
