<svg width="25" height="24" viewBox="0 0 25 24" fill="none" xmlns="http://www.w3.org/2000/svg">
<path d="M15.8334 14H15.0434L14.7634 13.73C15.9634 12.33 16.5834 10.42 16.2434 8.39002C15.7734 5.61002 13.4534 3.39002 10.6534 3.05002C6.42336 2.53002 2.86336 6.09001 3.38336 10.32C3.72336 13.12 5.94336 15.44 8.72336 15.91C10.7534 16.25 12.6634 15.63 14.0634 14.43L14.3334 14.71V15.5L18.5834 19.75C18.9934 20.16 19.6634 20.16 20.0734 19.75C20.4834 19.34 20.4834 18.67 20.0734 18.26L15.8334 14ZM9.83336 14C7.34336 14 5.33336 11.99 5.33336 9.50002C5.33336 7.01002 7.34336 5.00002 9.83336 5.00002C12.3234 5.00002 14.3334 7.01002 14.3334 9.50002C14.3334 11.99 12.3234 14 9.83336 14Z" fill="#0C4957"/>
<path d="M15.8334 14H15.0434L14.7634 13.73C15.9634 12.33 16.5834 10.42 16.2434 8.39002C15.7734 5.61002 13.4534 3.39002 10.6534 3.05002C6.42336 2.53002 2.86336 6.09001 3.38336 10.32C3.72336 13.12 5.94336 15.44 8.72336 15.91C10.7534 16.25 12.6634 15.63 14.0634 14.43L14.3334 14.71V15.5L18.5834 19.75C18.9934 20.16 19.6634 20.16 20.0734 19.75C20.4834 19.34 20.4834 18.67 20.0734 18.26L15.8334 14ZM9.83336 14C7.34336 14 5.33336 11.99 5.33336 9.50002C5.33336 7.01002 7.34336 5.00002 9.83336 5.00002C12.3234 5.00002 14.3334 7.01002 14.3334 9.50002C14.3334 11.99 12.3234 14 9.83336 14Z" fill="#3B0359"/>
</svg>
