<svg width="24" height="24" viewBox="0 0 24 24" fill="none" xmlns="http://www.w3.org/2000/svg">
<g id="&#240;&#159;&#166;&#134; icon &#34;category&#34;">
<g id="Vector">
<path d="M12 2L6.5 11H17.5L12 2Z" fill="#08313A"/>
<path d="M12 2L6.5 11H17.5L12 2Z" fill="#27023B"/>
</g>
<g id="Vector_2">
<path d="M17.5 22C19.9853 22 22 19.9853 22 17.5C22 15.0147 19.9853 13 17.5 13C15.0147 13 13 15.0147 13 17.5C13 19.9853 15.0147 22 17.5 22Z" fill="#08313A"/>
<path d="M17.5 22C19.9853 22 22 19.9853 22 17.5C22 15.0147 19.9853 13 17.5 13C15.0147 13 13 15.0147 13 17.5C13 19.9853 15.0147 22 17.5 22Z" fill="#27023B"/>
</g>
<g id="Vector_3">
<path d="M2.99999 13.5H11V21.5H2.99999V13.5Z" fill="#08313A"/>
<path d="M2.99999 13.5H11V21.5H2.99999V13.5Z" fill="#27023B"/>
</g>
</g>
</svg>
